<svg xmlns="http://www.w3.org/2000/svg" viewBox="0 0 1600 1000" role="img" aria-label="Tree Plantation Drive">
  <defs>
    <linearGradient id="sky" x1="0" y1="0" x2="0" y2="1">
      <stop offset="0" stop-color="#166534"/>
      <stop offset="1" stop-color="#dcfce7"/>
    </linearGradient>
    <linearGradient id="gold" x1="0" y1="0" x2="1" y2="1">
      <stop offset="0" stop-color="#f5ebcc"/><stop offset=".5" stop-color="#d4a93f"/><stop offset="1" stop-color="#a47522"/>
    </linearGradient>
    <pattern id="dots" width="28" height="28" patternUnits="userSpaceOnUse">
      <circle cx="2" cy="2" r="1.4" fill="#ffffff" opacity=".08"/>
    </pattern>
  </defs>
  <rect width="1600" height="1000" fill="url(#sky)"/>
  <rect width="1600" height="1000" fill="url(#dots)"/>
  <circle cx="1280" cy="230" r="90" fill="#fde68a" opacity=".85"/>
  <circle cx="1280" cy="230" r="140" fill="#fde68a" opacity=".12"/>
  <path d="M0 760 Q400 700 800 740 T1600 720 V1000 H0z" fill="#14532d"/>
  
  <g><rect x="220" y="560" width="22" height="200" fill="#6c4820"/><circle cx="231" cy="520" r="90" fill="#15803d"/><circle cx="200" cy="560" r="55" fill="#166534"/><rect x="450" y="560" width="22" height="200" fill="#6c4820"/><circle cx="461" cy="520" r="70" fill="#15803d"/><circle cx="430" cy="560" r="55" fill="#166534"/><rect x="680" y="560" width="22" height="200" fill="#6c4820"/><circle cx="691" cy="520" r="90" fill="#15803d"/><circle cx="660" cy="560" r="55" fill="#166534"/><rect x="910" y="560" width="22" height="200" fill="#6c4820"/><circle cx="921" cy="520" r="70" fill="#15803d"/><circle cx="890" cy="560" r="55" fill="#166534"/><rect x="1140" y="560" width="22" height="200" fill="#6c4820"/><circle cx="1151" cy="520" r="90" fill="#15803d"/><circle cx="1120" cy="560" r="55" fill="#166534"/><rect x="1370" y="560" width="22" height="200" fill="#6c4820"/><circle cx="1381" cy="520" r="70" fill="#15803d"/><circle cx="1350" cy="560" r="55" fill="#166534"/></g>
  <g fill="#0f1d3d"><circle cx="760" cy="700" r="30"/><rect x="736" y="728" width="48" height="110" rx="18"/></g>
  <rect x="0" y="940" width="1600" height="60" fill="#09132a" opacity=".55"/>
  <text x="60" y="980" font-family="Georgia, serif" font-size="30" fill="#f5ebcc" letter-spacing="2">TREE PLANTATION DRIVE</text>
  <text x="1540" y="980" text-anchor="end" font-family="Georgia, serif" font-size="22" fill="#ead597" opacity=".8">Nagar Parishad Dhamangaon Rly.</text>
</svg>
